<?xml version="1.0" standalone="no"?><!DOCTYPE svg PUBLIC "-//W3C//DTD SVG 1.1//EN" "http://www.w3.org/Graphics/SVG/1.1/DTD/svg11.dtd"><svg t="1597741583621" class="icon" viewBox="0 0 1024 1024" version="1.1" xmlns="http://www.w3.org/2000/svg" p-id="846" xmlns:xlink="http://www.w3.org/1999/xlink" width="200" height="200"><defs><style type="text/css"></style></defs><path d="M422.57 389.88v244.24l105.88-61.09 105.61-61.23-105.61-60.96z" fill="#717071" p-id="847"></path><path d="M512 64C264.58 64 64 264.58 64 512s200.58 448 448 448 448-200.58 448-448S759.42 64 512 64z m177.76 457.76c-1.8 3.04-4.01 5.39-7.05 7.19l-134.9 77.68-134.9 77.96c-9.13 5.38-21.15 2.21-26.54-7.19-1.8-3.04-2.49-6.36-2.49-9.68h-0.28V356.15c0-10.77 8.85-19.35 19.63-19.35 3.88 0 7.6 1.11 10.79 3.33l133.8 77.13 134.9 77.96c9.38 5.25 12.43 17.41 7.04 26.54z" fill="#717071" p-id="848"></path></svg>