<?xml version="1.0" standalone="no"?><!DOCTYPE svg PUBLIC "-//W3C//DTD SVG 1.1//EN" "http://www.w3.org/Graphics/SVG/1.1/DTD/svg11.dtd"><svg t="1597921269127" class="icon" viewBox="0 0 1024 1024" version="1.1" xmlns="http://www.w3.org/2000/svg" p-id="1151" xmlns:xlink="http://www.w3.org/1999/xlink" width="200" height="200"><defs><style type="text/css"></style></defs><path d="M541.8 701.2c-1.4-16.4-15.2-29.2-31.8-29.2-15.2 0-28 10.8-31.2 25L447.6 854c-1 4.6-1.6 9.2-1.6 14 0 35.4 28.6 60 64 60s64-24.6 64-60c0-5.8-0.8-11.4-2.2-16.8l-30-150z m70 8.8z m166 62.6c-3.4-2.8-6.6-5.8-10.2-7.8l-119.2-87c-11.6-7.6-24-7.4-33 1.8-8.2 8.2-9.4 20.8-3.4 30.8l90 123.6c1.8 3 4.4 5.6 6.8 8.4 15.6 18.2 50.2 19.2 69.2 0 18.8-19.6 18.6-54.4-0.2-69.8zM745 670z m125.8-30h-119c-7.8 0-14.8 4.4-16.2 12.4-1.2 7.2 2.6 14.2 9.4 17.6h0.2l115.4 35.6c16.6 3.8 35.4-11 35.4-29.6 0-23.6-9.6-36-25.2-36z m-592.4 30z m0 0c6.6-3.2 10.6-10.4 9.4-17.6-1.4-8-7.8-12.4-16.2-12.4H152.6c-15.2 0-24.6 16.6-24.6 35.2s18.2 34.2 34.8 30.4l115.4-35.6h0.2z m97.4 7.6l-119.2 86.8c-3.6 2.2-7.2 4.8-10.2 7.8-19.2 19.2-19.2 50.2 0 69.2 19.2 19.2 50.2 19.2 69.2 0 2.6-2.6 4.8-5.4 6.8-8.4l90-123.2c6-10 5-22.4-3.4-30.6-9.2-9-23.6-9.6-33.2-1.6z m341.6-400.2c0-115.2-144.8-181.4-192-181.4 24 161.6-203.4 226-224 362.6-20.6 136.6 96 181.4 96 181.4 32.6-113.2 144.8-151.2 219.4-199.6 81.4-52.8 100.6-102.6 100.6-163z m0 241.8c10-29.4 3.8-98.6-6-126.8-18 35-52.6 64.8-94.4 92-17.2 11.2-41.8 21.6-59.6 31.8-37.4 21-68 41.2-92.6 68.8 22.6 32.8 62.6 55.4 92.6 55.4 72-0.4 128-27.4 160-121.2z" p-id="1152"></path><path d="M323.6 343.8c23.4-30.2 49.8-47.6 76.4-72.4 26.8-25 44.2-42.4 55-62.6-21.4-40.2-61.6-56.2-89.4-52.2 4.6 57.2-60 88-64 129.6-2.6 25.2 10.8 50 22 57.6z" p-id="1153"></path></svg>