<?xml version="1.0" standalone="no"?><!DOCTYPE svg PUBLIC "-//W3C//DTD SVG 1.1//EN" "http://www.w3.org/Graphics/SVG/1.1/DTD/svg11.dtd"><svg t="1598238137568" class="icon" viewBox="0 0 1024 1024" version="1.1" xmlns="http://www.w3.org/2000/svg" p-id="1038" xmlns:xlink="http://www.w3.org/1999/xlink" width="200" height="200"><defs><style type="text/css"></style></defs><path d="M511.995548 1023.979534A495.538808 495.538808 0 0 1 83.103172 280.453058a498.452369 498.452369 0 0 1 174.945614-177.341435 30.12033 30.12033 0 0 1 30.912169 51.692861 434.90223 434.90223 0 0 0-212.17219 373.758063 435.308301 435.308301 0 0 0 836.212222 169.392591 436.201658 436.201658 0 0 0-25.04444-388.721785 437.917309 437.917309 0 0 0-155.7486-156.114064 30.113223 30.113223 0 1 1 30.526401-51.9162 495.163193 495.163193 0 0 1 244.657884 427.389913 495.010916 495.010916 0 0 1-495.406835 495.406836z" fill="#333333" p-id="1039"></path><path d="M480.657005 0m25.379449 0l11.938493 0q25.379449 0 25.379448 25.379449l0 346.764481q0 25.379449-25.379448 25.379448l-11.938493 0q-25.379449 0-25.379449-25.379448l0-346.764481q0-25.379449 25.379449-25.379449Z" fill="#333333" p-id="1040"></path></svg>